# xmcd CD database file
#
# Track frame offsets:
#	175
#	18907
#	36672
#	48510
#	62300
#	79257
#	107007
#	119090
#	146547
#	162452
#	196897
#
# Disc length: 2810 seconds
#
# Revision: 4
# Processed by: cddbd v1.5.1PL0 Copyright (c) Steve Scherf et al.
# Submitted via: CDex 1.60beta1
#
DISCID=980af80b
DTITLE=The Jimi Hendrix Experience - Psycho
DYEAR=1900
DGENRE=Rock
TTITLE0=Good Feeling
TTITLE1=Hot Tigger
TTITLE2=Psycho
TTITLE3=Come On Baby Pt. 1
TTITLE4=Come On Baby Pt. 2
TTITLE5=Night Life
TTITLE6=You Got It
TTITLE7=Woke Up In The Morning
TTITLE8=Lime Lime
TTITLE9=Peoples People
TTITLE10=Whoa'eeh
EXTD=
EXTT0=
EXTT1=
EXTT2=
EXTT3=
EXTT4=
EXTT5=
EXTT6=
EXTT7=
EXTT8=
EXTT9=
EXTT10=
PLAYORDER=
